<?xml version="1.0" encoding="UTF-8"?>
<svg id="Layer_1" data-name="Layer 1" xmlns="http://www.w3.org/2000/svg" viewBox="0 0 14 14">
  <defs>
    <style>
      .cls-1 {
        fill: #414042;
        stroke-width: 0px;
      }
    </style>
  </defs>
  <path class="cls-1" d="M13.01,3.03c-1.16-1.27-3.93-2.73-4.96-2.73s-2.86.31-5.57,2.86c-.67.63-1.11,1.34-1.39,2.07-.14.36-.78.02-1.02.88-.26.96.59.98.57,1.35-.06,1.3.2,2.29.2,2.29,0,0,.46,2.42,2.4,3.58,1.94,1.16,6.77-.77,7.06-1.01.3-.24,1.29-.76,2.32-4.13,0,0,.24.5.59.77s.41.17.41.17l.35-3.15s.2-1.66-.96-2.93ZM1.52,5.96c.02-.27.17-.5.31-.71.27-.38.61-.71.97-1,0,0,.05.05.05.05-.23.28-.47.56-.68.85-.15.21-.31.43-.39.68-.02.06-.03.11-.03.17-.02.3.1.65-.09.93-.06.11-.15.2-.22.3-.12.29-.08.61-.05.92.2,1.37.86,2.9,2.1,3.64,0,0-.03.06-.03.06-.67-.33-1.18-.93-1.55-1.57-.43-.76-.98-2.26-.69-3.12.01-.03.02-.05.04-.08.11-.15.26-.33.27-.49.01-.19-.04-.43-.02-.64ZM1.93,5.85c.16-.33.38-.69.67-1.07,0,0-1,2.29-.66,3.43.33,1.14,1.03,3.49,2.84,3.39.57-.03,1.16-.06,1.71-.1.33-.02.13.53,1,.43-.87.14-1.8.16-2.53-.03-1.64-.44-1.97-.5-2.69-1.7-.72-1.2-.79-2.19-.77-2.64,0-.05,0-.11,0-.17.02-.24.25-.16.37-.7.12-.52-.06-.63.05-.85ZM4.49,6.32c.16.84.82,1.67,1.7,1.79.62.08,1.19-.15,1.23-.83.01-.28,0-.59-.15-.84-.33-.5-.96-.72-1.54-.8,0,0,0-.07,0-.07.61.06,1.27.27,1.64.8.18.26.21.61.2.93-.05,1.2-1.53,1.24-2.29.65-.51-.39-.88-.95-.99-1.59-.13-.72.34-1.26.94-1.56.57-.29,1.17-.43,1.78-.55.6-.11,1.23-.18,1.85-.12.61.07,1.29.26,1.64.81,0,0-.06.03-.06.03-.72-.93-2.36-.74-3.39-.52-.95.21-2.76.59-2.56,1.88ZM10.7,7.37s.07,0,.07,0c-.07,1-.26,2-.72,2.9-.22.51-.78.71-1.29.78-.17.04-.51.05-.59.21-.06.31-.28.55-.52.59-.31.08-.61-.13-.8-.35-.06-.06-.11-.12-.17-.17-.29-.17-.66-.09-.98-.06-.35.04-.71.07-1.07.08-.37.02-.75-.08-1.06-.29-.4-.29-.68-.71-.82-1.18,0,0,.07-.02.07-.02.24.64.75,1.24,1.46,1.32.47.04.93-.04,1.4-.09.24-.03.48-.06.73-.04.16.01.33.07.46.18.2.2.43.49.74.42.18-.04.31-.19.35-.36.11-.67,1.47-.13,1.93-1.1.46-.87.67-1.85.8-2.83ZM8.38,11.35c.26-.03.45-.06.53-.09.33-.11,1.29-.3,1.57-1.29.28-1,.68-3.58.44-4.78-.24-1.2-1.59-1.2-1.59-1.2,0,0-.33-.02-.83,0,.47-.09.56-.57.78-.51.2.06.39.13.55.23.9.53,1.4,1.11,1.36,2.97-.04,1.86-.48,3.82-1.24,4.41-.39.3-1.25.62-2.23.8.58-.15.42-.52.65-.55ZM11.37,7.1c0-.8,0-1.65-.33-2.39-.32-.77-1.11-1.14-1.83-1.46-.06,0-.12.05-.16.1-.09.13-.14.28-.26.4-.19.21-.51.21-.75.08-.2-.1-.38-.27-.48-.48-.04-.04-.1-.06-.18-.06-.14,0-.29.05-.43.08-.3.08-.59.17-.88.28-.57.22-1.12.52-1.59.91-.47.39-.88.86-1.18,1.41l-.07-.03c.47-1.19,1.55-2.07,2.74-2.52.3-.12.6-.21.91-.28.26-.05.53-.16.78.01.04.03.08.08.1.13.07.16.2.29.35.37.28.17.52.1.7-.18.09-.14.19-.31.39-.3,1.46.55,2.08,1.08,2.25,2.69.05.4.05.83.04,1.24-.03,1.23-.17,2.52-.8,3.6-.22.35-.48.69-.86.9l-.03-.07c1.28-.84,1.53-3.02,1.54-4.44ZM3.44,5.99c.33-.96,1.59-1.83,2.78-2.27.38-.14.67-.25,1.08-.31.36-.05.11.53.98.6h0c-1.18.06-3.06.32-3.93,1.3,0,0-.68.85.28,2.21s2.38.96,2.58.85c.2-.11.96-.48.46-1.84-.25-.68-.93-.97-1.54-1.08,0,0,1.47-.89,2.52-.41,1.05.48,1.57,1.53,1.27,2.29-.3.76-1.52,2.27-1.76,2.31-.24.04-.33-.65-1.04-.5-.71.15-.68.92-.92,1.05-.24.13-2.14-.02-2.75-1.07-.61-1.05-.35-2.16-.02-3.12ZM3.54,9.64c.38.4.94.57,1.46.72.45.1.96.18,1.38-.04.05-.03.08-.07.1-.13.05-.12.08-.26.13-.4.09-.3.29-.58.65-.54.3.02.55.24.74.44.05.05.1.09.15.1.05.01.1,0,.15-.05.1-.08.2-.18.29-.29.36-.41.71-.87,1.04-1.31.43-.52.7-1.24.5-1.91-.07-.26-.21-.51-.39-.72l.06-.05c.38.43.57,1.02.46,1.59-.07.42-.28.81-.54,1.15-.25.33-.51.68-.77,1-.19.22-.35.44-.58.63-.06.05-.16.09-.24.07-.22-.08-.33-.29-.51-.4-.41-.26-.74-.15-.88.32-.07.18-.08.41-.23.56-.68.51-2.53-.07-3.04-.67-.59-.63-.82-1.5-.88-2.35,0,0,.07,0,.07,0,.07.81.31,1.67.89,2.27ZM12.06,9.17c-.2.58-.44,1.15-.71,1.7-.09.18-.19.38-.32.54-.99,1.16-2.99,1.66-4.44,1.94-.5.09-1.01.16-1.52.19-.3.01-.63-.01-.93-.09-.8-.21-1.5-.73-1.99-1.39,0,0,.06-.04.06-.04.61.79,1.54,1.38,2.55,1.41.61,0,1.21-.1,1.81-.21,1.37-.27,2.8-.63,3.93-1.49.16-.12.3-.26.42-.42.25-.31.39-.7.56-1.06.47-1.1.92-2.29.76-3.5-.09-1.26-.56-2.33-1.55-3.14-.28-.26-.71-.51-.98-.69-.31-.07-.43-.39-.55-.64-.16-.27-.51-.37-.81-.33-.18.02-.28.14-.38.28-.1.14-.22.28-.36.38-.29.22-.67.17-1.01.24-.51.09-1.01.23-1.49.43-.87.35-1.69.9-2.23,1.68,0,0-.06-.04-.06-.04.97-1.37,2.67-2.03,4.28-2.21.35-.01.62-.25.81-.53.05-.07.1-.14.17-.2.08-.07.17-.09.26-.1.31-.04.66.05.85.31.02.03.05.08.07.12.07.15.14.31.26.43.06.05.13.11.21.12,0,0,0,0,0,0,.36.2.72.4,1.03.66,1.04.81,1.55,1.92,1.63,3.21.11.82-.06,1.66-.33,2.43ZM3.82,3.68s2.51-2.12,4.35-2.07c1.84.06,3.5,2.27,3.85,3.19,0,0-.7-1.41-2.38-2.19-.29-.13-.07-.78-1.05-.87-.98-.09-1.01.74-1.3.77-2.32.22-3.35,1.16-3.35,1.16h-.13ZM13.62,6.25c-.03.81-.1,1.62-.22,2.43h-.07c.09-.81.15-1.62.15-2.43,0-.4-.01-.81-.07-1.2-.05-.4-.16-.76-.41-1.09-1.04-1.4-3.36-2.94-5.1-3.2-2.37-.2-5.45,2.54-6.54,4.46-.07.25-.28.41-.5.52-.08.04-.17.06-.25.1-.13.06-.23.16-.28.29-.11.26-.06.59.18.75.27.18.36.49.35.8.02.81.05,1.66.38,2.41,0,0-.07.03-.07.03-.29-.65-.35-1.38-.38-2.09-.01-.24.01-.48-.05-.7-.04-.25-.26-.37-.42-.53-.22-.31-.15-.79.17-.99.1-.07.22-.09.33-.14.2-.09.4-.26.46-.47C2.35,3.14,5.07.7,7.45.52c1.8-.09,4.7,1.89,5.71,3.34.25.33.38.76.42,1.17.05.41.06.82.04,1.23Z"/>
</svg>